<svg width="51" height="28" viewBox="0 0 51 28" fill="none" xmlns="http://www.w3.org/2000/svg">
<g clip-path="url(#clip0_34811_65709)">
<path d="M15.1176 15.276C11.64 11.7814 11.64 6.11518 15.1176 2.62065C15.1317 2.6065 15.1458 2.59471 15.1599 2.58056C11.6799 -0.873889 6.07169 -0.859741 2.60819 2.62065C-0.869396 6.11518 -0.869396 11.7814 2.60819 15.276L12.6584 25.3752C14.3972 27.1225 16.6757 27.9949 18.9542 27.9949C21.2327 27.9949 23.476 27.1343 25.2101 25.4129C25.196 25.3988 25.182 25.387 25.1679 25.3728L15.1176 15.2736V15.276Z" fill="#0BBCA7"/>
<path d="M47.8003 2.63545C44.3227 -0.85908 38.6839 -0.85908 35.2064 2.63545L31.4636 6.39644L27.7091 2.62366C24.2456 -0.856722 18.6374 -0.868512 15.1575 2.58358C15.1715 2.59773 15.1856 2.60952 15.1997 2.62366L25.25 12.7229C28.7276 16.2174 28.7276 21.8837 25.25 25.3782C25.2359 25.3924 25.2218 25.4042 25.2077 25.4183C26.9418 27.1373 29.2016 28.0003 31.4636 28.0003C33.7257 28.0003 36.0206 27.1278 37.7594 25.3806L47.7979 15.2931C51.2755 11.7986 51.2755 6.13235 47.7979 2.63781L47.8003 2.63545Z" fill="#0F3250"/>
<path d="M25.2517 12.7214L15.1991 2.62212C15.1851 2.60797 15.171 2.59618 15.1569 2.58203C15.1428 2.59618 15.1287 2.60797 15.1147 2.62212C11.6371 6.11665 11.6371 11.7829 15.1147 15.2774L25.1649 25.3767C25.179 25.3908 25.1931 25.4026 25.2072 25.4168C25.2212 25.4026 25.2353 25.3908 25.2494 25.3767C28.727 21.8821 28.727 16.2159 25.2494 12.7214H25.2517Z" fill="#5081A0"/>
</g>
<defs>
<clipPath id="clip0_34811_65709">
<rect width="50.4062" height="28" fill="white"/>
</clipPath>
</defs>
</svg>
