<svg width="196" height="28" viewBox="0 0 196 28" fill="none" xmlns="http://www.w3.org/2000/svg">
<g clip-path="url(#clip0_34811_65709)">
<g clip-path="url(#clip1_34811_65709)">
<path d="M10.9605 11.0412C8.43921 8.51539 8.43921 4.41994 10.9605 1.89415C10.9707 1.88393 10.9809 1.87541 10.9911 1.86518C8.46814 -0.631631 4.40207 -0.621405 1.89098 1.89415C-0.630325 4.41994 -0.630325 8.51539 1.89098 11.0412L9.17757 18.3407C10.4382 19.6036 12.0902 20.2342 13.7421 20.2342C15.3941 20.2342 17.0205 19.6121 18.2777 18.368C18.2675 18.3578 18.2573 18.3493 18.2471 18.339L10.9605 11.0395V11.0412Z" fill="#0BBCA7"/>
<path d="M34.6559 1.90399C32.1346 -0.621798 28.0464 -0.621798 25.5251 1.90399L22.8116 4.62236L20.0895 1.89547C17.5784 -0.620093 13.5124 -0.628615 10.9894 1.86649C10.9996 1.87672 11.0098 1.88524 11.02 1.89547L18.3066 9.19502C20.8279 11.7208 20.8279 15.8163 18.3066 18.342C18.2964 18.3523 18.2862 18.3608 18.276 18.371C19.5332 19.6135 21.1716 20.2372 22.8116 20.2372C24.4516 20.2372 26.1155 19.6066 27.3761 18.3437L34.6542 11.0527C37.1755 8.52693 37.1755 4.43148 34.6542 1.90569L34.6559 1.90399Z" fill="#0F3250"/>
<path d="M18.308 9.19571L11.0197 1.89616C11.0095 1.88593 10.9993 1.87741 10.9891 1.86719C10.9789 1.87741 10.9687 1.88593 10.9585 1.89616C8.43718 4.42195 8.43718 8.5174 10.9585 11.0432L18.2451 18.3427C18.2553 18.353 18.2655 18.3615 18.2757 18.3717C18.2859 18.3615 18.2961 18.353 18.3063 18.3427C20.8276 15.817 20.8276 11.7215 18.3063 9.19571H18.308Z" fill="#5081A0"/>
<path d="M55.4315 13.418H42.9274C43.0304 14.5445 43.4617 15.4292 44.2245 16.0673C44.9857 16.7053 45.9223 17.026 47.0343 17.026C48.6403 17.026 49.7829 16.3962 50.4621 15.1381H55.1242C54.6301 16.6412 53.6839 17.8762 52.2838 18.8431C50.8837 19.8117 49.165 20.2936 47.1276 20.2936C45.4813 20.2936 44.004 19.9597 42.6973 19.2937C41.3905 18.6277 40.3702 17.6838 39.6412 16.4619C38.9106 15.2417 38.5453 13.8324 38.5453 12.2357C38.5453 10.6389 38.9058 9.2016 39.6251 7.9814C40.3461 6.7612 41.3535 5.82221 42.6506 5.16442C43.9477 4.50663 45.4395 4.17773 47.1276 4.17773C48.8158 4.17773 50.2094 4.49676 51.4968 5.13646C52.7827 5.77452 53.782 6.68227 54.4917 7.85642C55.2014 9.03057 55.5571 10.379 55.5571 11.9002C55.5571 12.4642 55.5152 12.9707 55.4332 13.4213L55.4315 13.418ZM51.0784 10.7688C51.0575 9.75414 50.6568 8.94177 49.8747 8.33167C49.0926 7.72157 48.135 7.4157 47.0037 7.4157C45.9335 7.4157 45.0323 7.71171 44.3017 8.30372C43.5711 8.89573 43.1237 9.71796 42.958 10.7688H51.0784Z" fill="#0BBCA7"/>
<path d="M61.6216 2.17642L61.6215 20.3494H59.2142C58.0199 20.3494 57.0519 19.3796 57.0519 18.1832L57.052 1.63029e-05H59.4491C60.6485 1.63029e-05 61.6216 0.974881 61.6216 2.17642Z" fill="#0BBCA7"/>
<path d="M69.3481 7.52913V15.3553C69.3481 15.9007 69.4944 16.2944 69.7887 16.5381C70.083 16.7818 70.5764 16.9028 71.2739 16.9028C72.4456 16.9028 73.3954 17.8526 73.3954 19.0243V20.3489H70.5237C66.672 20.3489 64.7461 18.6753 64.7461 15.3263V7.52913H64.5624C63.4735 7.52913 62.5923 6.64459 62.5923 5.55554V4.17164H64.7461V0.169922H67.23C68.4005 0.169922 69.3481 1.11922 69.3481 2.29179V4.16993H71.3454C72.4784 4.16993 73.3954 5.09026 73.3954 6.22363V7.52742H69.3481V7.52913Z" fill="#0BBCA7"/>
<path d="M93.2349 4.17773L82.0421 28.0003C79.7954 28.0003 78.3259 25.6439 79.309 23.6215L81.0965 19.943L73.8529 4.17773H77.0351C78.2103 4.17773 79.2682 4.88651 79.7189 5.97524L83.6426 15.4773L87.6717 5.85768C88.0969 4.84051 89.0918 4.17944 90.1922 4.17944H93.2366L93.2349 4.17773Z" fill="#0BBCA7"/>
</g>
<path d="M96.1888 9.17151C96.8226 8.063 97.6882 7.21029 98.787 6.6119C99.8843 6.01501 101.106 5.71581 102.45 5.71581C103.472 5.71581 104.447 5.91627 105.374 6.31719C106.301 6.71812 107.039 7.25068 107.588 7.91639V1.1875H109.67C110.747 1.1875 111.618 2.05965 111.618 3.13675V20.125H109.685C108.526 20.125 107.586 19.1853 107.586 18.0262C107.095 18.7263 106.404 19.2888 105.514 19.7151C104.625 20.1415 103.593 20.3554 102.42 20.3554C101.095 20.3554 99.8828 20.0487 98.7855 19.4339C97.6882 18.819 96.8211 17.9544 96.1873 16.8369C95.5534 15.7194 95.2365 14.4358 95.2365 12.9848C95.2365 11.5337 95.5534 10.28 96.1873 9.17151H96.1888ZM107.048 10.7961C106.67 10.1738 106.159 9.6951 105.516 9.363C104.872 9.03089 104.181 8.86334 103.444 8.86334C102.707 8.86334 102.024 9.0264 101.4 9.34953C100.775 9.67416 100.269 10.1469 99.8813 10.7707C99.4927 11.393 99.2998 12.132 99.2998 12.9848C99.2998 13.8375 99.4941 14.5839 99.8813 15.2242C100.269 15.8645 100.78 16.3552 101.414 16.6963C102.048 17.0373 102.725 17.2079 103.444 17.2079C104.163 17.2079 104.873 17.0418 105.516 16.7082C106.159 16.3761 106.67 15.8974 107.048 15.2751C107.427 14.6528 107.616 13.9063 107.616 13.0356C107.616 12.165 107.427 11.42 107.048 10.7961Z" fill="#0F3250"/>
<path d="M114.671 9.19607C115.305 8.09001 116.166 7.2392 117.254 6.64214C118.343 6.04658 119.558 5.74805 120.902 5.74805C122.076 5.74805 123.103 5.9615 123.982 6.3869C124.862 6.81231 125.567 7.34817 126.097 7.99598V5.97941H130.101V20.1267H126.097V18.0579C125.586 18.7222 124.88 19.2714 123.982 19.7043C123.083 20.1387 122.046 20.3551 120.874 20.3551C119.549 20.3551 118.343 20.0491 117.254 19.4356C116.166 18.8222 115.305 17.9594 114.671 16.8444C114.037 15.7294 113.72 14.4487 113.72 13.0008C113.72 11.553 114.037 10.3021 114.671 9.19607ZM125.531 10.8171C125.152 10.1961 124.641 9.71849 123.998 9.38713C123.354 9.05576 122.663 8.88858 121.926 8.88858C121.189 8.88858 120.506 9.05128 119.883 9.37369C119.258 9.6976 118.751 10.1693 118.364 10.7917C117.975 11.4127 117.782 12.15 117.782 13.0008C117.782 13.8516 117.977 14.5965 118.364 15.2353C118.751 15.8742 119.262 16.3638 119.896 16.7041C120.53 17.0444 121.207 17.2146 121.926 17.2146C122.645 17.2146 123.355 17.0489 123.998 16.716C124.641 16.3847 125.152 15.907 125.531 15.2861C125.909 14.6651 126.099 13.9203 126.099 13.0516C126.099 12.1829 125.909 11.4395 125.531 10.8171Z" fill="#0F3250"/>
<path d="M139.781 17.0062L143.181 7.57253C143.526 6.61552 144.423 5.97852 145.427 5.97852H147.985L142.165 20.3535H137.34L131.548 5.97852H133.997C135.084 5.97852 136.054 6.66708 136.428 7.70297L139.781 17.0062Z" fill="#0F3250"/>
<path d="M149.732 3.64811C149.268 3.24142 149.036 2.73608 149.036 2.12908C149.036 1.52207 149.268 1.01674 149.732 0.610042C150.195 0.203347 150.777 0 151.478 0C152.179 0 152.76 0.203347 153.224 0.610042C153.687 1.01674 153.919 1.52359 153.919 2.12908C153.919 2.73457 153.687 3.24142 153.224 3.64811C152.76 4.05481 152.177 4.25815 151.478 4.25815C150.778 4.25815 150.195 4.05481 149.732 3.64811ZM153.436 7.85315V20.3545H151.298C150.283 20.3545 149.461 19.5198 149.461 18.4894V5.97143H151.582C152.606 5.97143 153.435 6.81365 153.435 7.85163L153.436 7.85315Z" fill="#0F3250"/>
<path d="M191.181 3.64811C190.718 3.24142 190.486 2.73608 190.486 2.12908C190.486 1.52207 190.718 1.01674 191.181 0.610042C191.645 0.203347 192.226 0 192.927 0C193.629 0 194.21 0.203347 194.674 0.610042C195.137 1.01674 195.369 1.52359 195.369 2.12908C195.369 2.73457 195.137 3.24142 194.674 3.64811C194.21 4.05481 193.627 4.25815 192.927 4.25815C192.228 4.25815 191.645 4.05481 191.181 3.64811ZM194.886 7.85315V20.3545H192.748C191.733 20.3545 190.911 19.5198 190.911 18.4894V5.97143H193.032C194.056 5.97143 194.884 6.81365 194.884 7.85163L194.886 7.85315Z" fill="#0F3250"/>
<path d="M169.846 7.39612C171 8.47741 171.577 9.98635 171.577 11.923V20.3549H167.602V12.4158C167.602 11.2739 167.29 10.3973 166.665 9.78314C166.04 9.16894 165.188 8.86261 164.11 8.86261C163.032 8.86261 162.146 9.17046 161.512 9.78314C160.878 10.3973 160.561 11.2754 160.561 12.4158V20.3549H156.586V5.98272H160.561V7.77222C161.09 7.14893 161.767 6.66061 162.591 6.30574C163.415 5.95087 164.318 5.77344 165.303 5.77344C167.176 5.77344 168.691 6.31484 169.845 7.39461L169.846 7.39612Z" fill="#0F3250"/>
<path d="M174.559 9.208C175.221 8.10941 176.139 7.25861 177.312 6.65408C178.486 6.04956 179.83 5.74805 181.344 5.74805C183.294 5.74805 184.907 6.18688 186.185 7.06307C187.463 7.94074 188.318 9.16919 188.755 10.7529H184.469C184.242 10.1394 183.859 9.65878 183.319 9.3095C182.779 8.96022 182.113 8.78558 181.317 8.78558C180.181 8.78558 179.283 9.15576 178.62 9.89611C177.958 10.6365 177.626 11.6873 177.626 13.0501C177.626 14.4129 177.957 15.4383 178.62 16.1787C179.283 16.919 180.181 17.2892 181.317 17.2892C182.926 17.2892 183.977 16.6429 184.469 15.3488H188.755C188.32 16.8802 187.459 18.0982 186.172 18.9998C184.884 19.9028 183.276 20.3536 181.346 20.3536C179.831 20.3536 178.487 20.0521 177.314 19.4476C176.14 18.843 175.222 17.9922 174.56 16.8936C173.898 15.7951 173.566 14.5144 173.566 13.0501C173.566 11.5858 173.896 10.3051 174.56 9.20651L174.559 9.208Z" fill="#0F3250"/>
</g>
<defs>
<clipPath id="clip0_34811_65709">
<rect width="195.369" height="28" fill="white"/>
</clipPath>
<clipPath id="clip1_34811_65709">
<rect width="93.2366" height="28" fill="white"/>
</clipPath>
</defs>
</svg>
